<svg width="21" height="20" viewBox="0 0 21 20" fill="none" xmlns="http://www.w3.org/2000/svg">
<mask id="path-1-outside-1_4188_675" maskUnits="userSpaceOnUse" x="5.5332" y="4.23022" width="10" height="11" fill="black">
<rect fill="white" x="5.5332" y="4.23022" width="10" height="11"/>
<path fill-rule="evenodd" clip-rule="evenodd" d="M8.39094 13.9137C7.78599 13.6556 7.30955 13.2915 6.99277 12.8104L6.99069 12.8073C6.68411 12.3324 6.5332 11.8031 6.5332 11.2298V10.7375H8.33854V11.3132C8.33854 11.6306 8.41127 11.8687 8.53197 12.0491C8.65101 12.2152 8.85534 12.3656 9.19302 12.4782C9.53187 12.5912 10.0075 12.6568 10.6391 12.6568C11.1919 12.6568 11.6102 12.6103 11.9091 12.5299L11.9118 12.5292C12.2163 12.4492 12.3952 12.3386 12.4973 12.2258C12.6 12.1046 12.6612 11.9482 12.6612 11.7305C12.6612 11.376 12.5489 11.2039 12.4052 11.1072L12.3993 11.1033L12.3935 11.0991C12.1872 10.9506 11.8114 10.8037 11.2113 10.689L9.4133 10.3671L9.41044 10.3665C8.9266 10.2738 8.4774 10.1419 8.06469 9.96921L8.06126 9.96778C7.62982 9.78314 7.26992 9.52356 6.99342 9.1861L6.98911 9.18084L6.98498 9.17545C6.69763 8.80085 6.57119 8.34263 6.57119 7.83242C6.57119 7.49805 6.65004 7.17502 6.80335 6.86709L6.80459 6.86459L6.80587 6.86211C6.97223 6.53906 7.21776 6.25829 7.53074 6.01824C7.85803 5.75912 8.26601 5.56973 8.73784 5.43878C9.22994 5.29658 9.79892 5.23022 10.4366 5.23022C11.2808 5.23022 12.0101 5.35507 12.5989 5.63226C13.1722 5.90216 13.6188 6.27759 13.9134 6.76462C14.1993 7.22928 14.3399 7.7433 14.3399 8.29732V8.78957H12.5346V8.2258C12.5346 7.90613 12.4608 7.66697 12.3386 7.48611L12.337 7.48373L12.3354 7.48132C12.2199 7.30527 12.0289 7.15503 11.722 7.04586C11.4122 6.93568 10.9698 6.87036 10.3733 6.87036C9.84145 6.87036 9.42887 6.92012 9.12251 7.00732L9.11792 7.00863L9.11331 7.00984C8.80662 7.09042 8.6273 7.20199 8.5256 7.31564C8.43589 7.41731 8.37652 7.55866 8.37652 7.77282C8.37652 8.00857 8.42659 8.15833 8.49037 8.2531C8.56797 8.35579 8.69068 8.45115 8.88522 8.52832C9.12348 8.61924 9.43723 8.70786 9.83273 8.79165L11.6093 9.1238C12.1463 9.21674 12.626 9.35831 13.042 9.55414C13.471 9.75609 13.8199 10.0306 14.071 10.3829C14.3437 10.7451 14.4665 11.1792 14.4665 11.6589C14.4665 12.1214 14.3187 12.5579 14.0396 12.9614C13.7463 13.3855 13.3043 13.7098 12.7496 13.9488L12.7467 13.95L12.7438 13.9512C12.1697 14.1894 11.4609 14.2969 10.6391 14.2969C9.77139 14.2969 9.01653 14.1765 8.3933 13.9147L8.39094 13.9137Z"/>
</mask>
<path fill-rule="evenodd" clip-rule="evenodd" d="M8.39094 13.9137C7.78599 13.6556 7.30955 13.2915 6.99277 12.8104L6.99069 12.8073C6.68411 12.3324 6.5332 11.8031 6.5332 11.2298V10.7375H8.33854V11.3132C8.33854 11.6306 8.41127 11.8687 8.53197 12.0491C8.65101 12.2152 8.85534 12.3656 9.19302 12.4782C9.53187 12.5912 10.0075 12.6568 10.6391 12.6568C11.1919 12.6568 11.6102 12.6103 11.9091 12.5299L11.9118 12.5292C12.2163 12.4492 12.3952 12.3386 12.4973 12.2258C12.6 12.1046 12.6612 11.9482 12.6612 11.7305C12.6612 11.376 12.5489 11.2039 12.4052 11.1072L12.3993 11.1033L12.3935 11.0991C12.1872 10.9506 11.8114 10.8037 11.2113 10.689L9.4133 10.3671L9.41044 10.3665C8.9266 10.2738 8.4774 10.1419 8.06469 9.96921L8.06126 9.96778C7.62982 9.78314 7.26992 9.52356 6.99342 9.1861L6.98911 9.18084L6.98498 9.17545C6.69763 8.80085 6.57119 8.34263 6.57119 7.83242C6.57119 7.49805 6.65004 7.17502 6.80335 6.86709L6.80459 6.86459L6.80587 6.86211C6.97223 6.53906 7.21776 6.25829 7.53074 6.01824C7.85803 5.75912 8.26601 5.56973 8.73784 5.43878C9.22994 5.29658 9.79892 5.23022 10.4366 5.23022C11.2808 5.23022 12.0101 5.35507 12.5989 5.63226C13.1722 5.90216 13.6188 6.27759 13.9134 6.76462C14.1993 7.22928 14.3399 7.7433 14.3399 8.29732V8.78957H12.5346V8.2258C12.5346 7.90613 12.4608 7.66697 12.3386 7.48611L12.337 7.48373L12.3354 7.48132C12.2199 7.30527 12.0289 7.15503 11.722 7.04586C11.4122 6.93568 10.9698 6.87036 10.3733 6.87036C9.84145 6.87036 9.42887 6.92012 9.12251 7.00732L9.11792 7.00863L9.11331 7.00984C8.80662 7.09042 8.6273 7.20199 8.5256 7.31564C8.43589 7.41731 8.37652 7.55866 8.37652 7.77282C8.37652 8.00857 8.42659 8.15833 8.49037 8.2531C8.56797 8.35579 8.69068 8.45115 8.88522 8.52832C9.12348 8.61924 9.43723 8.70786 9.83273 8.79165L11.6093 9.1238C12.1463 9.21674 12.626 9.35831 13.042 9.55414C13.471 9.75609 13.8199 10.0306 14.071 10.3829C14.3437 10.7451 14.4665 11.1792 14.4665 11.6589C14.4665 12.1214 14.3187 12.5579 14.0396 12.9614C13.7463 13.3855 13.3043 13.7098 12.7496 13.9488L12.7467 13.95L12.7438 13.9512C12.1697 14.1894 11.4609 14.2969 10.6391 14.2969C9.77139 14.2969 9.01653 14.1765 8.3933 13.9147L8.39094 13.9137Z" fill="white"/>
<path d="M12.8422 9.93045L12.8221 9.97317L12.8422 9.93045ZM13.7031 10.6218L13.6646 10.6491L13.6655 10.6504L13.7031 10.6218ZM8.11957 8.48805L8.08073 8.51496L8.08159 8.51612L8.11957 8.48805ZM8.18288 7.04566L8.14764 7.01422L8.14752 7.01436L8.18288 7.04566ZM8.99319 6.6046L9.00519 6.65028L9.00612 6.65002L8.99319 6.6046ZM11.8799 6.65228L11.8958 6.60779L11.8799 6.65228ZM12.7156 7.26023L12.6761 7.28614L12.6764 7.28668L12.7156 7.26023ZM12.9815 8.36885H12.9342V8.41607H12.9815V8.36885ZM13.8931 8.36885V8.41607H13.9403V8.36885H13.8931ZM13.8709 7.94812L13.8241 7.9542V7.9542L13.8709 7.94812ZM13.5259 6.97414L13.4855 6.99855L13.4857 6.99891L13.5259 6.97414ZM12.399 6.00857L12.4192 5.96584V5.96584L12.399 6.00857ZM8.86658 5.84168L8.87918 5.88719L8.87972 5.88704L8.86658 5.84168ZM7.8157 6.34235L7.8444 6.37986L7.84508 6.37932L7.8157 6.34235ZM7.20797 7.04566L7.16598 7.02404L7.1657 7.02461L7.20797 7.04566ZM7.34724 8.92912L7.30975 8.95787L7.31071 8.95904L7.34724 8.92912ZM8.24618 9.58475L8.2276 9.62816L8.22795 9.62831L8.24618 9.58475ZM9.49964 9.95429L9.49074 10.0007L9.49132 10.0008L9.49964 9.95429ZM11.2975 10.2761L11.3064 10.2298L11.3058 10.2297L11.2975 10.2761ZM12.6649 10.7649L12.6373 10.8032L12.6386 10.8041L12.6649 10.7649ZM12.8422 12.4934L12.8774 12.5248L12.878 12.5241L12.8422 12.4934ZM12.0319 12.9344L12.0199 12.8888L12.0196 12.8888L12.0319 12.9344ZM9.04384 12.8748L9.05877 12.83L9.04384 12.8748ZM8.15756 12.2788L8.11842 12.3053L8.11902 12.3061L8.15756 12.2788ZM7.89167 11.1583H7.93889V11.111H7.89167V11.1583ZM6.98007 11.1583V11.111H6.93285V11.1583H6.98007ZM7.00228 11.579L6.95545 11.5851H6.95545L7.00228 11.579ZM7.37256 12.5887L7.33289 12.6144L7.33312 12.6147L7.37256 12.5887ZM8.57537 13.5305L8.55684 13.5739L8.55709 13.574L8.57537 13.5305ZM12.5636 13.5662L12.5817 13.6098L12.5823 13.6096L12.5636 13.5662ZM12.8221 9.97317C13.1874 10.1451 13.4675 10.3707 13.6646 10.6491L13.7417 10.5946C13.5336 10.3008 13.2398 10.0654 12.8623 9.88772L12.8221 9.97317ZM11.5174 9.5836C12.0207 9.67047 12.4553 9.80053 12.8221 9.97317L12.8623 9.88772C12.4862 9.71069 12.0431 9.5785 11.5335 9.49053L11.5174 9.5836ZM8.08159 8.51612C8.22302 8.70753 8.42937 8.85533 8.6973 8.96112L8.73199 8.87327C8.4766 8.77244 8.28622 8.63414 8.15755 8.45999L8.08159 8.51612ZM7.88243 7.77282C7.88243 8.07341 7.94715 8.32207 8.08075 8.51494L8.15839 8.46116C8.03877 8.28847 7.97688 8.06031 7.97688 7.77282H7.88243ZM8.14752 7.01436C7.96989 7.21505 7.88243 7.46914 7.88243 7.77282H7.97688C7.97688 7.48841 8.05823 7.25773 8.21824 7.07696L8.14752 7.01436ZM8.98119 6.55893C8.61279 6.65572 8.33312 6.80633 8.14764 7.01422L8.21811 7.0771C8.38714 6.88764 8.64769 6.7442 9.00519 6.65027L8.98119 6.55893ZM10.3733 6.40241C9.81366 6.40241 9.3489 6.45425 8.98026 6.55918L9.00612 6.65002C9.36339 6.54832 9.81867 6.49685 10.3733 6.49685V6.40241ZM11.8958 6.60779C11.5089 6.47017 11.0006 6.40241 10.3733 6.40241V6.49685C10.9951 6.49685 11.4914 6.56419 11.8641 6.69677L11.8958 6.60779ZM12.7551 7.23433C12.5709 6.95358 12.2829 6.74547 11.8958 6.60779L11.8641 6.69677C12.2367 6.82929 12.5058 7.02649 12.6761 7.28613L12.7551 7.23433ZM13.0287 8.2258C13.0287 7.83688 12.9382 7.50533 12.7547 7.23379L12.6764 7.28668C12.8474 7.53964 12.9342 7.8518 12.9342 8.2258H13.0287ZM13.0287 8.36885V8.2258H12.9342V8.36885H13.0287ZM13.8458 8.29732V8.36885H13.9403V8.29732H13.8458ZM13.8241 7.9542C13.8386 8.06587 13.8458 8.18024 13.8458 8.29732H13.9403C13.9403 8.17633 13.9328 8.0579 13.9178 7.94205L13.8241 7.9542ZM13.4857 6.99891C13.6668 7.29299 13.7796 7.61128 13.8241 7.9542L13.9178 7.94205C13.8715 7.58588 13.7543 7.25485 13.5661 6.94937L13.4857 6.99891ZM12.3789 6.05129C12.8785 6.28648 13.2463 6.60259 13.4855 6.99855L13.5663 6.94972C13.3159 6.53509 12.9325 6.20749 12.4192 5.96584L12.3789 6.05129ZM10.4366 5.69817C11.2343 5.69817 11.8809 5.81684 12.3789 6.05129L12.4192 5.96584C11.9043 5.72348 11.2426 5.60373 10.4366 5.60373V5.69817ZM8.87972 5.88704C9.31323 5.76145 9.83191 5.69817 10.4366 5.69817V5.60373C9.82575 5.60373 9.29777 5.6676 8.85344 5.79632L8.87972 5.88704ZM7.84508 6.37932C8.10899 6.16967 8.45309 6.00518 8.87918 5.88719L8.85398 5.79617C8.41911 5.91659 8.06263 6.08588 7.78633 6.30537L7.84508 6.37932ZM7.24995 7.06728C7.38135 6.81213 7.579 6.58288 7.8444 6.37985L7.78701 6.30484C7.5122 6.51506 7.30469 6.75469 7.16599 7.02404L7.24995 7.06728ZM7.06527 7.83242C7.06527 7.5699 7.12671 7.31482 7.25024 7.06671L7.1657 7.02461C7.036 7.28511 6.97083 7.55454 6.97083 7.83242H7.06527ZM7.38471 8.90037C7.17294 8.6243 7.06527 8.26955 7.06527 7.83242H6.97083C6.97083 8.28536 7.08262 8.66174 7.30977 8.95786L7.38471 8.90037ZM8.26476 9.54133C7.89948 9.38501 7.60629 9.17077 7.38377 8.89919L7.31071 8.95904C7.54399 9.24376 7.8501 9.46661 8.2276 9.62816L8.26476 9.54133ZM9.50853 9.90791C9.05553 9.82103 8.64089 9.69872 8.26441 9.54119L8.22795 9.62831C8.61115 9.78866 9.03214 9.91271 9.49074 10.0007L9.50853 9.90791ZM11.3058 10.2297L9.50796 9.9078L9.49132 10.0008L11.2892 10.3226L11.3058 10.2297ZM12.6925 10.7266C12.3971 10.5139 11.9332 10.3494 11.3064 10.2298L11.2887 10.3225C11.9111 10.4413 12.3588 10.6026 12.6373 10.8032L12.6925 10.7266ZM13.1553 11.7305C13.1553 11.2741 13.0031 10.9354 12.6913 10.7257L12.6386 10.8041C12.9177 10.9918 13.0608 11.2967 13.0608 11.7305H13.1553ZM12.878 12.5241C13.0634 12.308 13.1553 12.0424 13.1553 11.7305H13.0608C13.0608 12.0225 12.9754 12.2655 12.8063 12.4626L12.878 12.5241ZM12.0439 12.9801C12.4123 12.8833 12.6919 12.7327 12.8774 12.5248L12.8069 12.4619C12.6379 12.6514 12.3774 12.7948 12.0199 12.8888L12.0439 12.9801ZM10.6391 13.1247C11.2152 13.1247 11.684 13.0769 12.0441 12.98L12.0196 12.8888C11.6707 12.9827 11.211 13.0303 10.6391 13.0303V13.1247ZM9.0289 12.9196C9.44074 13.057 9.97812 13.1247 10.6391 13.1247V13.0303C9.9834 13.0303 9.45725 12.9629 9.05877 12.83L9.0289 12.9196ZM8.11902 12.3061C8.31216 12.5789 8.61732 12.7824 9.0289 12.9196L9.05877 12.83C8.66004 12.6971 8.37434 12.5032 8.19609 12.2515L8.11902 12.3061ZM7.84445 11.3132C7.84445 11.7022 7.9349 12.0337 8.11843 12.3052L8.19668 12.2524C8.0257 11.9994 7.93889 11.6872 7.93889 11.3132H7.84445ZM7.84445 11.1583V11.3132H7.93889V11.1583H7.84445ZM7.02729 11.2298V11.1583H6.93285V11.2298H7.02729ZM7.0491 11.5729C7.03457 11.4613 7.02729 11.3469 7.02729 11.2298H6.93285C6.93285 11.3509 6.94037 11.4693 6.95545 11.5851L7.0491 11.5729ZM7.41224 12.5631C7.21662 12.2601 7.09564 11.9302 7.0491 11.5729L6.95545 11.5851C7.0038 11.9563 7.12967 12.2996 7.33289 12.6144L7.41224 12.5631ZM8.5939 13.487C8.06022 13.2594 7.66748 12.9507 7.412 12.5628L7.33312 12.6147C7.60097 13.0215 8.01011 13.3407 8.55684 13.5739L8.5939 13.487ZM10.6391 13.8289C9.81594 13.8289 9.13473 13.7142 8.59366 13.4869L8.55709 13.574C9.11331 13.8077 9.80795 13.9234 10.6391 13.9234V13.8289ZM12.5455 13.5226C12.0553 13.726 11.4205 13.8289 10.6391 13.8289V13.9234C11.4278 13.9234 12.076 13.8197 12.5817 13.6098L12.5455 13.5226ZM13.6263 12.7049C13.3963 13.0375 13.0373 13.3107 12.545 13.5229L12.5823 13.6096C13.086 13.3926 13.4613 13.1096 13.704 12.7586L13.6263 12.7049ZM13.9724 11.6589C13.9724 12.0218 13.8578 12.3702 13.6263 12.7049L13.704 12.7586C13.9452 12.41 14.0669 12.0431 14.0669 11.6589H13.9724ZM13.6655 10.6504C13.8692 10.9189 13.9724 11.254 13.9724 11.6589H14.0669C14.0669 11.2373 13.9591 10.8811 13.7408 10.5933L13.6655 10.6504ZM13.8931 8.32163H12.9815V8.41607H13.8931V8.32163ZM6.98007 11.2055H7.89167V11.111H6.98007V11.2055ZM8.39094 13.9137L8.35388 14.0006L8.35412 14.0007L8.39094 13.9137ZM6.99277 12.8104L7.07165 12.7585L7.07165 12.7585L6.99277 12.8104ZM6.99069 12.8073L6.91134 12.8585L6.91182 12.8592L6.99069 12.8073ZM6.5332 10.7375V10.6431H6.43876V10.7375H6.5332ZM8.33854 10.7375H8.43298V10.6431H8.33854V10.7375ZM8.53197 12.0491L8.45343 12.1016L8.4552 12.1041L8.53197 12.0491ZM9.19302 12.4782L9.16315 12.5678L9.19302 12.4782ZM11.9091 12.5299L11.9336 12.6211L11.9337 12.6211L11.9091 12.5299ZM11.9118 12.5292L11.8878 12.4378L11.8872 12.438L11.9118 12.5292ZM12.4973 12.2258L12.5674 12.2892L12.5693 12.2869L12.4973 12.2258ZM12.4052 11.1072L12.3525 11.1856L12.3525 11.1856L12.4052 11.1072ZM12.3993 11.1033L12.3441 11.1799L12.3466 11.1816L12.3993 11.1033ZM12.3935 11.0991L12.3383 11.1757L12.3383 11.1757L12.3935 11.0991ZM11.2113 10.689L11.2291 10.5962L11.228 10.596L11.2113 10.689ZM9.4133 10.3671L9.39552 10.4599L9.39666 10.4601L9.4133 10.3671ZM9.41044 10.3665L9.39265 10.4593L9.39266 10.4593L9.41044 10.3665ZM8.06469 9.96921L8.02824 10.0563L8.02824 10.0563L8.06469 9.96921ZM8.06126 9.96778L8.0241 10.0546L8.02481 10.0549L8.06126 9.96778ZM6.99342 9.1861L7.06648 9.12624L7.06648 9.12624L6.99342 9.1861ZM6.98911 9.18084L6.91414 9.23835L6.91606 9.24069L6.98911 9.18084ZM6.98498 9.17545L6.91004 9.23293L6.91004 9.23293L6.98498 9.17545ZM6.80335 6.86709L6.71881 6.825L6.71881 6.825L6.80335 6.86709ZM6.80459 6.86459L6.72062 6.82135L6.72005 6.8225L6.80459 6.86459ZM6.80587 6.86211L6.72191 6.81887L6.72191 6.81887L6.80587 6.86211ZM7.53074 6.01824L7.58823 6.09319L7.58937 6.09229L7.53074 6.01824ZM8.73784 5.43878L8.7631 5.52979L8.76406 5.52952L8.73784 5.43878ZM12.5989 5.63226L12.6391 5.54681L12.5989 5.63226ZM13.9134 6.76462L13.8326 6.8135L13.833 6.81411L13.9134 6.76462ZM14.3399 8.78957V8.88402H14.4344V8.78957H14.3399ZM12.5346 8.78957H12.4401V8.88402H12.5346V8.78957ZM12.3386 7.48611L12.2603 7.539L12.2603 7.539L12.3386 7.48611ZM12.337 7.48373L12.258 7.53554L12.2587 7.53661L12.337 7.48373ZM12.3354 7.48132L12.2564 7.53313L12.2564 7.53313L12.3354 7.48132ZM11.722 7.04586L11.6904 7.13484H11.6904L11.722 7.04586ZM9.12251 7.00732L9.09665 6.91649L9.09665 6.91649L9.12251 7.00732ZM9.11792 7.00863L9.14193 7.09999L9.14378 7.09946L9.11792 7.00863ZM9.11331 7.00984L9.08931 6.9185L9.08931 6.9185L9.11331 7.00984ZM8.5256 7.31564L8.45522 7.25267L8.45479 7.25315L8.5256 7.31564ZM8.49037 8.2531L8.4119 8.3059L8.41502 8.31004L8.49037 8.2531ZM8.88522 8.52832L8.8504 8.61612L8.85155 8.61656L8.88522 8.52832ZM9.83273 8.79165L9.81315 8.88407L9.81537 8.88448L9.83273 8.79165ZM11.6093 9.1238L11.5919 9.21665L11.5932 9.21687L11.6093 9.1238ZM13.042 9.55414L13.0018 9.63959L13.042 9.55414ZM14.071 10.3829L13.9941 10.4377L13.9955 10.4397L14.071 10.3829ZM14.0396 12.9614L14.1173 13.0151L14.0396 12.9614ZM12.7496 13.9488L12.7122 13.8621L12.7122 13.8621L12.7496 13.9488ZM12.7467 13.95L12.7829 14.0373L12.7841 14.0368L12.7467 13.95ZM12.7438 13.9512L12.78 14.0385H12.78L12.7438 13.9512ZM8.3933 13.9147L8.35649 14.0017L8.35673 14.0018L8.3933 13.9147ZM6.91389 12.8624C7.24305 13.3622 7.7359 13.7369 8.35388 14.0006L8.428 13.8268C7.83608 13.5743 7.37605 13.2208 7.07165 12.7585L6.91389 12.8624ZM6.91182 12.8592L6.9139 12.8624L7.07165 12.7585L7.06957 12.7553L6.91182 12.8592ZM6.43876 11.2298C6.43876 11.8205 6.59452 12.3678 6.91135 12.8585L7.07004 12.7561C6.7737 12.297 6.62765 11.7856 6.62765 11.2298H6.43876ZM8.61046 11.9966C8.50212 11.8346 8.43298 11.6158 8.43298 11.3132H8.24409C8.24409 11.6455 8.32042 11.9027 8.45347 12.1016L8.61046 11.9966ZM9.2229 12.3887C8.89801 12.2803 8.71293 12.1395 8.60874 11.9941L8.4552 12.1041C8.58908 12.2909 8.81266 12.451 9.16315 12.5678L9.2229 12.3887ZM10.6391 12.5623C10.0128 12.5623 9.54837 12.4972 9.2229 12.3887L9.16315 12.5678C9.51537 12.6853 10.0022 12.7512 10.6391 12.7512V12.5623ZM11.8846 12.4387C11.5969 12.5161 11.1877 12.5623 10.6391 12.5623V12.7512C11.1961 12.7512 11.6236 12.7045 11.9336 12.6211L11.8846 12.4387ZM11.8872 12.438L11.8846 12.4387L11.9337 12.6211L11.9363 12.6204L11.8872 12.438ZM12.4272 12.1624C12.3415 12.2572 12.1814 12.3607 11.8878 12.4378L11.9358 12.6205C12.2511 12.5377 12.4489 12.42 12.5673 12.2892L12.4272 12.1624ZM12.5668 11.7305C12.5668 11.9285 12.5119 12.0625 12.4252 12.1647L12.5693 12.2869C12.6881 12.1467 12.7556 11.968 12.7556 11.7305H12.5668ZM12.3525 11.1856C12.4638 11.2605 12.5668 11.3991 12.5668 11.7305H12.7556C12.7556 11.3529 12.6339 11.1472 12.4579 11.0289L12.3525 11.1856ZM12.3466 11.1816L12.3525 11.1856L12.4579 11.0289L12.452 11.0249L12.3466 11.1816ZM12.3383 11.1757L12.3441 11.1799L12.4544 11.0266L12.4487 11.0224L12.3383 11.1757ZM11.1936 10.7817C11.7893 10.8956 12.1488 11.0393 12.3383 11.1757L12.4487 11.0225C12.2256 10.8618 11.8335 10.7118 11.2291 10.5962L11.1936 10.7817ZM9.39266 10.4593L9.39552 10.4599L9.43108 10.2743L9.42822 10.2738L9.39266 10.4593ZM8.02824 10.0563C8.44765 10.2318 8.9032 10.3654 9.39265 10.4593L9.42823 10.2738C8.94999 10.1821 8.50714 10.052 8.10115 9.88209L8.02824 10.0563ZM8.02481 10.0549L8.02824 10.0563L8.10115 9.88209L8.09772 9.88065L8.02481 10.0549ZM6.92037 9.24595C7.20763 9.59655 7.58045 9.86474 8.0241 10.0546L8.09842 9.88095C7.67919 9.70154 7.33222 9.45057 7.06648 9.12624L6.92037 9.24595ZM6.91606 9.24069L6.92037 9.24595L7.06648 9.12624L7.06216 9.12098L6.91606 9.24069ZM6.91004 9.23293L6.91417 9.23832L7.06405 9.12335L7.05991 9.11796L6.91004 9.23293ZM6.47674 7.83242C6.47674 8.35841 6.6073 8.83827 6.91004 9.23293L7.05991 9.11796C6.78796 8.76344 6.66563 8.32686 6.66563 7.83242H6.47674ZM6.71881 6.825C6.55933 7.14531 6.47674 7.48269 6.47674 7.83242H6.66563C6.66563 7.51341 6.74075 7.20473 6.8879 6.90918L6.71881 6.825ZM6.72005 6.8225L6.71881 6.825L6.8879 6.90918L6.88914 6.90669L6.72005 6.8225ZM6.72191 6.81887L6.72063 6.82135L6.88856 6.90783L6.88984 6.90535L6.72191 6.81887ZM7.47326 5.9433C7.1509 6.19054 6.89556 6.48167 6.72191 6.81887L6.88984 6.90535C7.04891 6.59645 7.28461 6.32604 7.58822 6.09319L7.47326 5.9433ZM8.71259 5.34778C8.23202 5.48115 7.81172 5.67532 7.47212 5.9442L7.58937 6.09229C7.90433 5.84292 8.29999 5.65831 8.7631 5.52979L8.71259 5.34778ZM10.4366 5.13578C9.79278 5.13578 9.21451 5.20273 8.71162 5.34805L8.76406 5.52952C9.24536 5.39043 9.80507 5.32467 10.4366 5.32467V5.13578ZM12.6391 5.54681C12.0335 5.2617 11.2891 5.13578 10.4366 5.13578V5.32467C11.2725 5.32467 11.9866 5.44843 12.5587 5.71771L12.6391 5.54681ZM13.9942 6.71574C13.6883 6.21006 13.2261 5.82316 12.6391 5.54681L12.5587 5.71771C13.1183 5.98116 13.5493 6.34512 13.8326 6.8135L13.9942 6.71574ZM14.4344 8.29732C14.4344 7.72655 14.2892 7.19528 13.9938 6.71513L13.833 6.81411C14.1093 7.26329 14.2455 7.76006 14.2455 8.29732H14.4344ZM12.2603 7.539C12.37 7.7013 12.4401 7.92109 12.4401 8.2258H12.629C12.629 7.89117 12.5516 7.63264 12.4168 7.43322L12.2603 7.539ZM12.2587 7.53661L12.2603 7.539L12.4168 7.43322L12.4152 7.43084L12.2587 7.53661ZM12.2564 7.53313L12.258 7.53553L12.4159 7.43192L12.4143 7.42951L12.2564 7.53313ZM11.6904 7.13484C11.9827 7.23883 12.1547 7.37813 12.2564 7.53313L12.4143 7.42952C12.285 7.2324 12.0752 7.07123 11.7537 6.95688L11.6904 7.13484ZM10.3733 6.9648C10.9643 6.9648 11.3948 7.0297 11.6904 7.13484L11.7537 6.95688C11.4297 6.84166 10.9754 6.77591 10.3733 6.77591V6.9648ZM9.14837 7.09816C9.44335 7.01419 9.84646 6.9648 10.3733 6.9648V6.77591C9.83645 6.77591 9.4144 6.82604 9.09665 6.91649L9.14837 7.09816ZM9.14378 7.09946L9.14837 7.09816L9.09665 6.91649L9.09206 6.91779L9.14378 7.09946ZM9.13731 7.10119L9.14192 7.09997L9.09392 6.91729L9.08931 6.9185L9.13731 7.10119ZM8.59599 7.37862C8.68128 7.2833 8.84155 7.17889 9.13731 7.10119L9.08931 6.9185C8.77168 7.00195 8.57332 7.12067 8.45522 7.25267L8.59599 7.37862ZM8.47096 7.77282C8.47096 7.578 8.5242 7.45997 8.59642 7.37813L8.45479 7.25315C8.34759 7.37464 8.28207 7.53932 8.28207 7.77282H8.47096ZM8.56872 8.20037C8.51828 8.12542 8.47096 7.99564 8.47096 7.77282H8.28207C8.28207 8.02151 8.3349 8.19123 8.41201 8.30582L8.56872 8.20037ZM8.92005 8.44053C8.73784 8.36825 8.63071 8.28216 8.56572 8.19615L8.41502 8.31004C8.50524 8.42942 8.64352 8.53405 8.8504 8.61611L8.92005 8.44053ZM9.8523 8.69925C9.45964 8.61606 9.15102 8.52866 8.9189 8.44008L8.85155 8.61656C9.09595 8.70982 9.41482 8.79965 9.81316 8.88404L9.8523 8.69925ZM11.6266 9.03097L9.85009 8.69881L9.81537 8.88448L11.5919 9.21664L11.6266 9.03097ZM13.0823 9.46869C12.657 9.26848 12.1688 9.12478 11.6254 9.03074L11.5932 9.21687C12.1239 9.30871 12.5951 9.44814 13.0018 9.63959L13.0823 9.46869ZM14.1479 10.3281C13.886 9.9605 13.5234 9.67635 13.0823 9.46869L13.0018 9.63959C13.4187 9.83583 13.7539 10.1007 13.9941 10.4377L14.1479 10.3281ZM14.561 11.6589C14.561 11.1626 14.4336 10.7076 14.1465 10.3261L13.9955 10.4397C14.2537 10.7827 14.3721 11.1957 14.3721 11.6589H14.561ZM14.1173 13.0151C14.406 12.5977 14.561 12.1427 14.561 11.6589H14.3721C14.3721 12.1001 14.2314 12.5181 13.962 12.9076L14.1173 13.0151ZM12.787 14.0355C13.3531 13.7916 13.8113 13.4576 14.1173 13.0151L13.962 12.9076C13.6814 13.3133 13.2556 13.6279 12.7122 13.8621L12.787 14.0355ZM12.7841 14.0368L12.787 14.0355L12.7122 13.8621L12.7093 13.8633L12.7841 14.0368ZM12.78 14.0385L12.7829 14.0373L12.7105 13.8628L12.7076 13.864L12.78 14.0385ZM10.6391 14.3913C11.4681 14.3913 12.1905 14.2831 12.78 14.0385L12.7076 13.864C12.149 14.0958 11.4536 14.2024 10.6391 14.2024V14.3913ZM8.35673 14.0018C8.99511 14.2699 9.7634 14.3913 10.6391 14.3913V14.2024C9.77939 14.2024 9.03795 14.083 8.42988 13.8276L8.35673 14.0018ZM8.35412 14.0007L8.35649 14.0017L8.43012 13.8277L8.42775 13.8267L8.35412 14.0007ZM6.43876 10.7375V11.2298H6.62765V10.7375H6.43876ZM8.33854 10.6431H6.5332V10.832H8.33854V10.6431ZM8.43298 11.3132V10.7375H8.24409V11.3132H8.43298ZM9.39666 10.4601L11.1947 10.7819L11.228 10.596L9.42994 10.2741L9.39666 10.4601ZM14.4344 8.78957V8.29732H14.2455V8.78957H14.4344ZM12.5346 8.88402H14.3399V8.69513H12.5346V8.88402ZM12.4401 8.2258V8.78957H12.629V8.2258H12.4401Z" fill="white" mask="url(#path-1-outside-1_4188_675)"/>
<path fill-rule="evenodd" clip-rule="evenodd" d="M3.18957 9.99005C3.18957 5.95285 6.46237 2.68005 10.4996 2.68005C14.0226 2.68005 16.9636 5.17236 17.6555 8.49005H20.0742C19.3532 3.85069 15.341 0.300049 10.4996 0.300049C5.14793 0.300049 0.80957 4.63841 0.80957 9.99005C0.80957 15.3417 5.14793 19.68 10.4996 19.68C15.341 19.68 19.3532 16.1294 20.0742 11.49H17.6555C16.9636 14.8077 14.0226 17.3 10.4996 17.3C6.46237 17.3 3.18957 14.0272 3.18957 9.99005Z" fill="white"/>
</svg>
